# xmcd
#
# Track frame offsets:
#	150
#	16750
#	32307
#	45542
#	59060
#	78757
#	93710
#	110007
#	126440
#	139642
#	157450
#	173480
#	188865
#	208552
#	225647
#	240845
#	256165
#	271057
#
# Disc length: 3793
#
# Revision: 1
# Processed by: cddbd v1.5.1PL0 Copyright (c) Steve Scherf et al.
# Submitted via: VisiTrax 2.9.5.180 - For more info visit www.synapsa.com
# Normalized: r0:DSETVAR1
#
DISCID=e90ecf12
DTITLE=Various Artist - CDX 80 April 1994
DYEAR=1994
DGENRE=
TTITLE0=Ian Tyson - Alcohol in the bloodstream
TTITLE1=Bob Woodruff - Bayou girl
TTITLE2=Deborah Allen - Break these chains
TTITLE3=John and Audrey Wiggins - Falling out of love
TTITLE4=Travis Tritt - Foolish pride
TTITLE5=Alan Taylor - Forever dance
TTITLE6=Davis Daniel - I miss her missing me
TTITLE7=John Anderson - I wish I could have been there
TTITLE8=Tracy Byrd - Lifestyles of the not so rich and famous
TTITLE9=Alabama - The cheap seats
TTITLE10=Kenny Chesney - The tin man
TTITLE11=Bob Howdy - They don't make 'em like that anymore
TTITLE12=Vince Gill - Whenever you come around
TTITLE13=Aaron Tippin - Whole lotta love in the line
TTITLE14=Chris LeDoux - Wild and wooly
TTITLE15=Johnny Duncan - Wild oats
TTITLE16=Bubba James Hudson - Everybody line dancin
TTITLE17=Nashville Bluegrass Band - Backtrackin
EXTD=
EXTT0=
EXTT1=
EXTT2=
EXTT3=
EXTT4=
EXTT5=
EXTT6=
EXTT7=
EXTT8=
EXTT9=
EXTT10=
EXTT11=
EXTT12=
EXTT13=
EXTT14=
EXTT15=
EXTT16=
EXTT17=
PLAYORDER=
